<?xml version="1.0" encoding="utf-8"?>
<svg viewBox="0 58.982 652.141 383.769" xmlns="http://www.w3.org/2000/svg">
  <defs>
    <linearGradient gradientUnits="userSpaceOnUse" x1="317.762" y1="177.935" x2="317.762" y2="471.598" id="gradient-1" gradientTransform="matrix(0.999897, -0.007854, 0.004656, 0.235468, -3.021565, 184.403359)">
      <stop offset="0" style="stop-color: rgba(13, 46, 84, 0.03);"/>
      <stop offset="1" style="stop-color: rgba(12, 31, 101, 0.9);"/>
    </linearGradient>
  </defs>
  <rect x="-2.331" y="220.003" width="654.874" height="189.854" style="fill: url(#gradient-1);" rx="0.383" ry="0.383"/>
  <path style="fill: rgb(35, 39, 85);" d="M -95.976 416.807 C -103.988 421.381 5.801 335.499 52.784 337.822 C 167.825 343.51 127.584 358.924 296.809 337.723 C 545.153 306.609 1008.585 434.474 562.364 394.669 C 495.999 388.749 652.564 460.029 644.249 450.954 L 626.24 481.281 L -104.908 487.872"/>
  <path style="fill-rule: nonzero; paint-order: fill; fill: rgb(37, 64, 102);" d="M -46.546 455.693 C -47.964 454.71 -81.921 346.842 113.331 362.365 C 248.366 368.334 338.795 343.753 375.677 343.169 C 406.18 342.686 660.686 372.983 677.037 376.454 C 677.037 376.454 697.663 447.484 697.853 447.711"/>
  <path style="fill: rgb(24, 50, 83);" d="M -72.784 497.33 C -105.471 508.456 -70.704 426.51 -17.216 396.396 C 21.076 374.838 73.6 368.86 331.639 354.652 C 457.397 347.728 589.703 417.638 656.406 409.998 C 698.142 423.2 706.719 505.184 700.673 504.772"/>
  <path style="fill: rgb(21, 50, 104);" d="M -97.855 497.284 C -103.909 487.8 -59.141 440.148 -9.94 417.142 C 27.575 399.601 151.511 374.18 318.325 384.864 C 485.139 395.548 550.458 447.884 596.795 453.38 C 596.795 453.38 734.393 497.456 685.322 497.456"/>
  <path style="fill: rgb(40, 43, 77);" d="M -91.812 506.47 C -116.13 499.047 -191.891 464.617 213.8 405.54 C 411.563 376.742 525.8 439.939 546.669 451.229 C 567.538 462.519 704.907 505.059 700.348 502.743"/>
  <ellipse style="fill: rgb(255, 255, 255);" cx="544.234" cy="170.602" rx="18.43" ry="18.43"/>
  <ellipse style="fill: rgb(231, 252, 253);" cx="27.46" cy="112.406" rx="0.919" ry="0.919"/>
  <ellipse style="fill: rgb(231, 252, 253);" cx="96.248" cy="81.141" rx="0.919" ry="0.919"/>
  <ellipse style="fill: rgb(231, 252, 253);" cx="43.169" cy="171.987" rx="0.919" ry="0.919"/>
  <ellipse style="fill: rgb(231, 252, 253);" cx="315.112" cy="142.47" rx="0.919" ry="0.919"/>
  <ellipse style="fill: rgb(255, 255, 255);" cx="199.914" cy="109.388" rx="0.919" ry="0.919"/>
  <ellipse style="fill: rgb(255, 255, 255);" cx="147.902" cy="136.138" rx="0.919" ry="0.919"/>
  <ellipse style="fill: rgb(255, 255, 255);" cx="397.755" cy="85.584" rx="0.919" ry="0.919"/>
  <ellipse style="fill: rgb(255, 255, 255);" cx="571.794" cy="100.22" rx="0.919" ry="0.919"/>
  <ellipse style="fill: rgb(255, 255, 255);" cx="587.671" cy="79.371" rx="0.919" ry="0.919"/>
  <ellipse style="fill: rgb(231, 252, 253);" cx="331.213" cy="152.256" rx="0.919" ry="0.919"/>
  <ellipse style="fill: rgb(231, 252, 253);" cx="291.094" cy="112.323" rx="0.919" ry="0.919"/>
  <ellipse style="fill: rgb(255, 255, 255);" cx="615.593" cy="121.32" rx="0.919" ry="0.919"/>
  <ellipse style="fill: rgb(255, 255, 255);" cx="450.741" cy="125.784" rx="0.919" ry="0.919"/>
  <ellipse style="fill: rgb(255, 255, 255);" cx="229.804" cy="189.289" rx="0.919" ry="0.919"/>
  <ellipse style="fill: rgb(255, 255, 255);" cx="90.829" cy="195.56" rx="0.919" ry="0.919"/>
  <ellipse style="fill: rgb(231, 252, 253);" cx="96.248" cy="139.38" rx="0.919" ry="0.919"/>
  <ellipse style="fill: rgb(231, 252, 253);" cx="81.998" cy="97.659" rx="0.919" ry="0.919"/>
  <ellipse style="fill: rgb(231, 252, 253);" cx="222.656" cy="195.259" rx="0.919" ry="0.919"/>
  <ellipse style="fill: rgb(231, 252, 253);" cx="373.913" cy="203.332" rx="0.919" ry="0.919"/>
  <ellipse style="fill: rgb(231, 252, 253);" cx="272.823" cy="171.583" rx="0.919" ry="0.919"/>
  <ellipse style="fill: rgb(231, 252, 253);" cx="149.533" cy="171.174" rx="0.919" ry="0.919"/>
  <ellipse style="fill: rgb(231, 252, 253);" cx="59.731" cy="199.551" rx="0.919" ry="0.919"/>
  <ellipse style="fill: rgb(231, 252, 253);" cx="74.319" cy="155.666" rx="0.919" ry="0.919"/>
  <ellipse style="fill: rgb(231, 252, 253);" cx="176.945" cy="136.701" rx="0.919" ry="0.919"/>
  <ellipse style="fill: rgb(231, 252, 253);" cx="444.751" cy="200.586" rx="0.919" ry="0.919"/>
  <ellipse style="fill: rgb(231, 252, 253);" cx="428.538" cy="174.633" rx="0.919" ry="0.919"/>
  <ellipse style="fill: rgb(231, 252, 253);" cx="617.326" cy="204.376" rx="0.919" ry="0.919"/>
  <ellipse style="fill: rgb(231, 252, 253);" cx="594.166" cy="200.857" rx="0.919" ry="0.919"/>
  <ellipse style="fill: rgb(231, 252, 253);" cx="605.311" cy="157.492" rx="0.919" ry="0.919"/>
  <ellipse style="fill: rgb(231, 252, 253);" cx="555.709" cy="112.25" rx="0.919" ry="0.919"/>
  <ellipse style="fill: rgb(231, 252, 253);" cx="218.035" cy="121.575" rx="0.919" ry="0.919"/>
</svg>