<?xml version="1.0" encoding="utf-8"?>
<svg viewBox="1 -70.071 687.042 431.523" xmlns="http://www.w3.org/2000/svg">
  <rect x="-0.532" y="184.37" width="689.407" height="30.248" style="fill: rgb(11, 48, 116);"/>
  <rect x="0.356" y="164.115" width="688.545" height="20.454" style="fill: rgba(217, 234, 241, 0.12);"/>
  <rect x="-0.511" y="141.157" width="688.961" height="22.786" style="fill: rgba(12, 44, 100, 0.6);"/>
  <rect x="2.942" y="-70.628" width="502.31" height="156.915" style="fill: rgba(216, 216, 216, 0);"/>
  <rect x="1.261" y="117.408" width="685.859" height="24.014" style="fill: rgba(19, 44, 86, 0.47);"/>
  <ellipse style="fill: rgb(230, 234, 243);" cx="63.579" cy="6.798" rx="21.464" ry="21.464"/>
  <ellipse style="fill: rgb(191, 222, 87);"/>
  <rect x="-2.096" y="213.45" width="689.407" height="149.796" style="fill: rgb(244, 241, 231);"/>
  <ellipse style="fill: rgb(43, 60, 77);" cx="231.644" cy="267.993" rx="411.047" ry="81.023"/>
  <ellipse style="fill: rgb(39, 52, 61);" cx="476.247" cy="276.657" rx="411.047" ry="81.023"/>
  <rect x="-0.032" y="163.385" width="688.961" height="22.786" style="fill: rgba(13, 50, 114, 0.96);"/>
  <ellipse style="fill: rgb(28, 42, 55);" cx="275.26" cy="256.571" rx="231.28" ry="81.023"/>
  <ellipse style="fill: rgb(26, 51, 74);" cx="517.648" cy="258.779" rx="231.28" ry="81.023"/>
  <ellipse style="fill: rgb(32, 42, 50);" cx="346.327" cy="336.272" rx="411.047" ry="81.023"/>
  <rect x="1.472" y="98.466" width="685.859" height="19.301" style="fill: rgba(7, 36, 91, 0.1);"/>
  <rect x="1.472" y="80.228" width="685.859" height="18.096" style="fill: rgba(10, 44, 85, 0.04);"/>
  <ellipse style="fill: rgb(224, 251, 255);" cx="134.616" cy="-30.161" rx="0.289" ry="0.289"/>
  <ellipse style="fill: rgb(224, 251, 255);" cx="146.667" cy="-27.694" rx="0.289" ry="0.289"/>
  <ellipse style="fill: rgb(224, 251, 255);" cx="201.178" cy="0.778" rx="0.289" ry="0.289"/>
  <ellipse style="fill: rgb(224, 251, 255);" cx="284.546" cy="20.365" rx="0.289" ry="0.289"/>
  <ellipse style="fill: rgb(224, 251, 255);" cx="364.368" cy="-20.021" rx="0.289" ry="0.289"/>
  <ellipse style="fill: rgb(224, 251, 255);" cx="445.904" cy="61.145" rx="0.289" ry="0.289"/>
  <ellipse style="fill: rgb(224, 251, 255);" cx="523.384" cy="11.398" rx="0.289" ry="0.289"/>
  <ellipse style="fill: rgb(224, 251, 255);" cx="601.79" cy="51.234" rx="0.289" ry="0.289"/>
  <ellipse style="fill: rgb(224, 251, 255);" cx="638.439" cy="5.512" rx="0.289" ry="0.289"/>
  <ellipse style="fill: rgb(224, 251, 255);" cx="579.375" cy="-37.622" rx="0.289" ry="0.289"/>
  <ellipse style="fill: rgb(224, 251, 255);" cx="588.859" cy="-4.817" rx="0.289" ry="0.289"/>
  <ellipse style="fill: rgb(224, 251, 255);" cx="679.231" cy="-64.87" rx="0.289" ry="0.289"/>
  <ellipse style="fill: rgb(224, 251, 255);" cx="644.348" cy="-50.734" rx="0.289" ry="0.289"/>
  <ellipse style="fill: rgb(224, 251, 255);" cx="615.195" cy="-36.174" rx="0.289" ry="0.289"/>
  <ellipse style="fill: rgb(224, 251, 255);" cx="442.592" cy="-7.053" rx="0.289" ry="0.289"/>
  <ellipse style="fill: rgb(224, 251, 255);" cx="466.781" cy="-35.084" rx="0.289" ry="0.289"/>
  <ellipse style="fill: rgb(224, 251, 255);" cx="462.992" cy="-16.808" rx="0.289" ry="0.289"/>
  <ellipse style="fill: rgb(224, 251, 255);" cx="474.19" cy="-28.201" rx="0.289" ry="0.289"/>
  <ellipse style="fill: rgb(224, 251, 255);" cx="201.451" cy="44.775" rx="0.289" ry="0.289"/>
  <ellipse style="fill: rgb(224, 251, 255);" cx="230.098" cy="41.406" rx="0.289" ry="0.289"/>
  <ellipse style="fill: rgb(224, 251, 255);" cx="22.117" cy="-51.644" rx="0.289" ry="0.289"/>
  <ellipse style="fill: rgb(224, 251, 255);" cx="21.24" cy="68.56" rx="0.289" ry="0.289"/>
  <ellipse style="fill: rgb(224, 251, 255);" cx="132.281" cy="39.156" rx="0.289" ry="0.289"/>
  <ellipse style="fill: rgb(224, 251, 255);" cx="121.957" cy="8.626" rx="0.289" ry="0.289"/>
</svg>