<?xml version="1.0" encoding="utf-8"?>
<svg viewBox="0 58.982 652.141 383.769" xmlns="http://www.w3.org/2000/svg">
  <defs>
    <linearGradient gradientUnits="userSpaceOnUse" x1="317.762" y1="177.935" x2="317.762" y2="471.598" id="gradient-1" gradientTransform="matrix(0.99982, 0.014429, -0.000816, 0.320386, -4.53959, 162.367522)">
      <stop offset="0" style="stop-color: rgba(14, 41, 85, 0.06);"/>
      <stop offset="1" style="stop-color: rgba(17, 59, 127, 0.9);"/>
    </linearGradient>
  </defs>
  <ellipse style="fill: rgb(255, 255, 255);" cx="535.499" cy="185.845" rx="15.425" ry="15.425"/>
  <rect x="-2.331" y="220.716" width="654.87" height="190.469" style="fill: url(#gradient-1);" transform="matrix(0.999997, 0.00237, -0.00237, 0.999997, 0.750521, -2.10011)"/>
  <path style="fill: rgb(36, 62, 76);" d="M -35.249 419.595 C -43.261 424.169 66.528 338.287 113.511 340.61 C 228.552 346.298 188.311 361.712 357.536 340.511 C 605.88 309.397 550.907 385.308 623.091 397.457 C 688.796 408.515 713.291 462.817 704.976 453.742 L 686.967 484.069 L -44.181 490.66"/>
  <path style="fill-rule: nonzero; paint-order: fill; fill: rgb(17, 60, 87);" d="M -47.783 481.686 C -48.449 480.896 -20.649 420.636 49.814 383.828 C 150.302 325.437 208.281 420.679 250.426 394.031 C 292.571 367.383 343.236 364.826 377.028 353.953 C 410.82 343.079 495.509 350.16 537.512 381.138 C 537.512 381.138 696.426 473.477 696.616 473.704"/>
  <path style="fill: rgb(63, 85, 100);" d="M -76.801 505.578 C -109.488 516.704 39.988 395.423 98.343 375.56 C 124.949 365.969 227.916 371.292 248.402 387.599 C 285.159 401.225 324.262 382.307 360.397 367.021 C 417.474 354.004 443.905 354.223 499.781 383.408 C 602.918 438.809 590.633 451.545 629.833 453.206 C 671.569 466.408 702.702 513.432 696.656 513.02"/>
  <path style="fill: rgb(87, 84, 77);" d="M -44.656 502.044 C -50.168 492.441 -9.502 444.007 35.39 420.895 C 94.177 390.629 194.848 369.773 233.792 389.186 C 327.722 419.097 370.91 346.145 469.414 384.062 C 567.918 421.98 563.368 454.875 605.557 460.44 C 605.557 460.44 713.096 502.218 668.418 502.218"/>
  <path style="fill: rgb(14, 39, 54);" d="M -21.316 500.046 C -45.544 492.604 33.874 397.222 213.8 405.54 C 407.413 414.49 374.499 367.907 467.358 398.518 C 560.217 429.129 565.608 456.494 587.19 465.139 C 608.772 473.784 661.645 508.255 657.086 505.939"/>
  <ellipse style="fill: rgb(231, 252, 253);" cx="27.718" cy="113.491" rx="0.919" ry="0.919"/>
  <ellipse style="fill: rgb(231, 252, 253);" cx="96.506" cy="82.226" rx="0.919" ry="0.919"/>
  <ellipse style="fill: rgb(231, 252, 253);" cx="43.427" cy="173.072" rx="0.919" ry="0.919"/>
  <ellipse style="fill: rgb(231, 252, 253);" cx="315.37" cy="143.555" rx="0.919" ry="0.919"/>
  <ellipse style="fill: rgb(255, 255, 255);" cx="200.172" cy="110.473" rx="0.919" ry="0.919"/>
  <ellipse style="fill: rgb(255, 255, 255);" cx="148.16" cy="137.223" rx="0.919" ry="0.919"/>
  <ellipse style="fill: rgb(255, 255, 255);" cx="398.013" cy="86.669" rx="0.919" ry="0.919"/>
  <ellipse style="fill: rgb(255, 255, 255);" cx="572.052" cy="101.305" rx="0.919" ry="0.919"/>
  <ellipse style="fill: rgb(255, 255, 255);" cx="587.929" cy="80.456" rx="0.919" ry="0.919"/>
  <ellipse style="fill: rgb(231, 252, 253);" cx="331.471" cy="153.341" rx="0.919" ry="0.919"/>
  <ellipse style="fill: rgb(231, 252, 253);" cx="291.352" cy="113.408" rx="0.919" ry="0.919"/>
  <ellipse style="fill: rgb(255, 255, 255);" cx="615.851" cy="122.405" rx="0.919" ry="0.919"/>
  <ellipse style="fill: rgb(255, 255, 255);" cx="450.999" cy="126.869" rx="0.919" ry="0.919"/>
  <ellipse style="fill: rgb(255, 255, 255);" cx="230.062" cy="190.374" rx="0.919" ry="0.919"/>
  <ellipse style="fill: rgb(255, 255, 255);" cx="91.087" cy="196.645" rx="0.919" ry="0.919"/>
  <ellipse style="fill: rgb(231, 252, 253);" cx="96.506" cy="140.465" rx="0.919" ry="0.919"/>
  <ellipse style="fill: rgb(231, 252, 253);" cx="82.256" cy="98.744" rx="0.919" ry="0.919"/>
  <ellipse style="fill: rgb(231, 252, 253);" cx="222.914" cy="196.344" rx="0.919" ry="0.919"/>
  <ellipse style="fill: rgb(231, 252, 253);" cx="374.171" cy="204.417" rx="0.919" ry="0.919"/>
  <ellipse style="fill: rgb(231, 252, 253);" cx="273.081" cy="172.668" rx="0.919" ry="0.919"/>
  <ellipse style="fill: rgb(231, 252, 253);" cx="149.791" cy="172.259" rx="0.919" ry="0.919"/>
  <ellipse style="fill: rgb(231, 252, 253);" cx="59.989" cy="200.636" rx="0.919" ry="0.919"/>
  <ellipse style="fill: rgb(231, 252, 253);" cx="74.577" cy="156.751" rx="0.919" ry="0.919"/>
  <ellipse style="fill: rgb(231, 252, 253);" cx="177.203" cy="137.786" rx="0.919" ry="0.919"/>
  <ellipse style="fill: rgb(231, 252, 253);" cx="445.009" cy="201.671" rx="0.919" ry="0.919"/>
  <ellipse style="fill: rgb(231, 252, 253);" cx="428.796" cy="175.718" rx="0.919" ry="0.919"/>
  <ellipse style="fill: rgb(231, 252, 253);" cx="617.584" cy="205.461" rx="0.919" ry="0.919"/>
  <ellipse style="fill: rgb(231, 252, 253);" cx="594.424" cy="201.942" rx="0.919" ry="0.919"/>
  <ellipse style="fill: rgb(231, 252, 253);" cx="605.569" cy="158.577" rx="0.919" ry="0.919"/>
  <ellipse style="fill: rgb(231, 252, 253);" cx="555.967" cy="113.335" rx="0.919" ry="0.919"/>
  <ellipse style="fill: rgb(231, 252, 253);" cx="218.293" cy="122.66" rx="0.919" ry="0.919"/>
</svg>