<?xml version="1.0" encoding="utf-8"?>
<svg viewBox="104.216 58.982 279.105 393.124" xmlns="http://www.w3.org/2000/svg">
  <defs>
    <linearGradient gradientUnits="userSpaceOnUse" x1="317.762" y1="177.935" x2="317.762" y2="471.598" id="gradient-1" gradientTransform="matrix(0.999866, 0.011177, 0.000173, 0.233784, -2.55063, 178.655369)">
      <stop offset="0" style="stop-color: rgba(103, 185, 244, 0.03);"/>
      <stop offset="1" style="stop-color: rgba(75, 174, 251, 0.9);"/>
    </linearGradient>
  </defs>
  <rect x="-2.331" y="220.003" width="654.874" height="189.854" style="fill: url(#gradient-1);" rx="0.383" ry="0.383"/>
  <path style="fill: rgb(254, 251, 237);" d="M -95.976 416.807 C -103.988 421.381 5.801 335.499 52.784 337.822 C 167.825 343.51 127.584 358.924 296.809 337.723 C 545.153 306.609 1008.585 434.474 562.364 394.669 C 495.999 388.749 652.564 460.029 644.249 450.954 L 626.24 481.281 L -104.908 487.872"/>
  <path style="fill: rgb(242, 241, 216); fill-rule: nonzero; paint-order: fill;" d="M -46.546 455.693 C -47.964 454.71 -81.921 346.842 113.331 362.365 C 248.366 368.334 338.795 343.753 375.677 343.169 C 406.18 342.686 660.686 372.983 677.037 376.454 C 677.037 376.454 697.663 447.484 697.853 447.711"/>
  <path style="fill: rgb(232, 209, 177);" d="M -72.784 497.33 C -105.471 508.456 -70.704 426.51 -17.216 396.396 C 21.076 374.838 73.6 368.86 331.639 354.652 C 457.397 347.728 589.703 417.638 656.406 409.998 C 698.142 423.2 706.719 505.184 700.673 504.772"/>
  <path style="fill: rgb(226, 224, 214);" d="M -97.855 497.284 C -103.909 487.8 -59.141 440.148 -9.94 417.142 C 27.575 399.601 151.511 374.18 318.325 384.864 C 485.139 395.548 550.458 447.884 596.795 453.38 C 596.795 453.38 734.393 497.456 685.322 497.456"/>
  <path style="fill: rgb(241, 238, 227);" d="M -91.812 506.47 C -116.13 499.047 -191.891 464.617 213.8 405.54 C 411.563 376.742 525.8 439.939 546.669 451.229 C 567.538 462.519 704.907 505.059 700.348 502.743"/>
  <ellipse style="fill: rgb(252, 255, 173);" cx="181.884" cy="141.007" rx="20.727" ry="20.727"/>
</svg>